<?xml version="1.0" encoding="UTF-8"?>
<svg width="96px" height="98px" viewBox="0 0 96 98" version="1.1" xmlns="http://www.w3.org/2000/svg" xmlns:xlink="http://www.w3.org/1999/xlink">
    <!-- Generator: Sketch 52.2 (67145) - http://www.bohemiancoding.com/sketch -->
    <title>signature-freehand</title>
    <desc>Created with Sketch.</desc>
    <defs>
        <path d="M96,96 L0,96 L0,86.4 L96,86.4 L96,96 Z M20.16,73.44 L16.8,76.8 L10.08,70.08 L3.36,76.8 L0,73.44 L6.72,66.72 L0,60 L3.36,56.64 L10.08,63.36 L16.8,56.64 L20.16,60 L13.44,66.72 L20.16,73.44 Z M68.256,59.664 C68.256,56.88 64.8,53.76 57.888,50.208 C49.104,45.792 43.2,42.192 40.128,39.552 C37.008,36.864 35.472,33.888 35.472,30.576 C35.472,22.032 39.84,14.976 48.576,9.36 C57.312,3.744 64.464,0.912 69.936,0.912 C73.488,0.912 76.08,1.536 77.664,2.784 C79.2,3.984 80.064,6.096 80.064,9.12 C80.064,10.464 79.488,11.616 78.288,12.624 C77.136,13.584 76.176,14.064 75.552,14.064 C75.024,14.064 74.064,13.584 72.624,12.672 L69.84,11.424 C67.584,11.424 63.072,13.008 56.208,16.224 C49.392,19.392 45.984,22.992 45.984,27.024 C45.984,29.472 47.136,31.68 49.536,33.6 C51.936,35.616 56.208,38.064 62.4,40.944 C67.344,43.2 71.328,45.6 74.4,48.336 C77.28,50.928 78.768,54 78.768,57.6 C78.768,64.032 74.256,69.168 65.184,72.816 C56.16,76.512 47.52,78.336 39.312,78.336 C32.4,78.336 28.8,75.984 28.8,71.328 C28.8,69.6 29.712,68.496 31.2,67.728 C32.784,66.96 34.368,66.576 36,66.576 L39.6,67.2 L43.056,67.824 C47.76,67.824 52.8,67.056 58.224,65.472 C63.648,63.936 67.008,61.968 68.256,59.664 Z" id="path-1"></path>
        <filter x="-0.5%" y="-1.6%" width="101.0%" height="103.2%" filterUnits="objectBoundingBox" id="filter-2">
            <feOffset dx="0" dy="-1" in="SourceAlpha" result="shadowOffsetOuter1"></feOffset>
            <feColorMatrix values="0 0 0 0 0   0 0 0 0 0   0 0 0 0 0  0 0 0 0.198567708 0" type="matrix" in="shadowOffsetOuter1" result="shadowMatrixOuter1"></feColorMatrix>
            <feOffset dx="0" dy="1" in="SourceAlpha" result="shadowOffsetOuter2"></feOffset>
            <feColorMatrix values="0 0 0 0 1   0 0 0 0 1   0 0 0 0 1  0 0 0 0.803611866 0" type="matrix" in="shadowOffsetOuter2" result="shadowMatrixOuter2"></feColorMatrix>
            <feMerge>
                <feMergeNode in="shadowMatrixOuter1"></feMergeNode>
                <feMergeNode in="shadowMatrixOuter2"></feMergeNode>
            </feMerge>
        </filter>
    </defs>
    <g id="Page-1" stroke="none" stroke-width="1" fill="none" fill-rule="evenodd">
        <g id="signature-freehand" transform="translate(0.000000, 1.000000)" fill-rule="nonzero">
            <g id="Shape">
                <use fill="black" fill-opacity="1" filter="url(#filter-2)" xlink:href="#path-1"></use>
                <use fill="#DDDDDD" xlink:href="#path-1"></use>
            </g>
        </g>
    </g>
</svg>