<?xml version="1.0" encoding="UTF-8"?>
<svg width="30px" height="15px" viewBox="0 0 30 15" version="1.1" xmlns="http://www.w3.org/2000/svg" xmlns:xlink="http://www.w3.org/1999/xlink">
    <!-- Generator: Sketch 52.2 (67145) - http://www.bohemiancoding.com/sketch -->
    <title>Shape</title>
    <desc>Created with Sketch.</desc>
    <g id="Page-1" stroke="none" stroke-width="1" fill="none" fill-rule="evenodd">
        <g id="Artboard" transform="translate(-1071.000000, -1588.000000)" fill="#057986">
            <path d="M1077.47355,1596.52645 C1077.73624,1596.78914 1078.09915,1596.95161 1078.5,1596.95161 C1079.3017,1596.95161 1079.95161,1596.3017 1079.95161,1595.5 C1079.95161,1595.09915 1079.78914,1594.73624 1079.52645,1594.47355 L1086,1588 L1086,1603 L1071,1603 L1077.47355,1596.52645 Z M1092.04839,1596.95161 C1092.85009,1596.95161 1093.5,1596.3017 1093.5,1595.5 C1093.5,1594.6983 1092.85009,1594.04839 1092.04839,1594.04839 L1092.04839,1588 C1096.99223,1588 1101,1591.35786 1101,1595.5 C1101,1599.64214 1096.99223,1603 1092.04839,1603 L1092.04839,1596.95161 Z" id="Shape"></path>
        </g>
    </g>
</svg>