<?xml version="1.0" encoding="UTF-8"?>
<svg width="256px" height="256px" viewBox="0 0 256 256" version="1.1" xmlns="http://www.w3.org/2000/svg" xmlns:xlink="http://www.w3.org/1999/xlink">
    <!-- Generator: Sketch 52.2 (67145) - http://www.bohemiancoding.com/sketch -->
    <title>Artboard Copy 7</title>
    <desc>Created with Sketch.</desc>
    <g id="Artboard-Copy-7" stroke="none" stroke-width="1" fill="none" fill-rule="evenodd">
        <g id="icon" fill="#057986">
            <rect id="Rectangle" x="0" y="0" width="256" height="256"></rect>
        </g>
        <path d="M105.262812,42.7371875 C105.96332,43.4376949 106.931062,43.8709677 108,43.8709677 C110.137876,43.8709677 111.870968,42.1378765 111.870968,40 C111.870968,38.9310618 111.437695,37.9633198 110.737188,37.2628125 L128,20 L128,60 L88,60 L105.262812,42.7371875 Z M144.129032,43.8709677 C146.266909,43.8709677 148,42.1378765 148,40 C148,37.8621235 146.266909,36.1290323 144.129032,36.1290323 L144.129032,20 C157.312604,20 168,28.954305 168,40 C168,51.045695 157.312604,60 144.129032,60 L144.129032,43.8709677 Z" id="Shape" fill="#FFFFFF"></path>
        <g id="Group" transform="translate(88.000000, 108.000000)">
            <path d="M60.6654762,0 L80,19.3345238 L80,100 L0,100 L0,0 L60.6654762,0 Z M60,4 L60,20 L76,20 L60,4 Z" id="Combined-Shape" fill="#FFFFFF"></path>
            <g id="signature-freehand" transform="translate(16.000000, 36.000000)" fill="#057986" fill-rule="nonzero">
                <path d="M48,48 L0,48 L0,43.1539626 L48,43.1539626 L48,48 Z M10.08,36.6118122 L8.4,38.3079253 L5.04,34.9156991 L1.68,38.3079253 L0,36.6118122 L3.36,33.2195861 L0,29.8273599 L1.68,28.1312468 L5.04,31.523473 L8.4,28.1312468 L10.08,29.8273599 L6.72,33.2195861 L10.08,36.6118122 Z M34.128,29.6577486 C34.128,28.2523978 32.4,26.6774356 28.944,24.8844018 C24.552,22.6552246 21.6,20.8379606 20.064,19.5053004 C18.504,18.1484099 17.736,16.6461383 17.736,14.9742554 C17.736,10.6612822 19.92,7.09944472 24.288,4.26451287 C28.656,1.42958102 32.232,0 34.968,0 C36.744,0 38.04,0.314992428 38.832,0.944977284 C39.6,1.55073195 40.032,2.61686017 40.032,4.14336194 C40.032,4.82180717 39.744,5.40333165 39.144,5.91216557 C38.568,6.39676931 38.088,6.63907118 37.776,6.63907118 C37.512,6.63907118 37.032,6.39676931 36.312,5.93639576 L34.92,5.3064109 C33.792,5.3064109 31.536,6.10600707 28.104,7.72942958 C24.696,9.32862191 22.992,11.1458859 22.992,13.1812216 C22.992,14.4169611 23.568,15.5315497 24.768,16.5007572 C25.968,17.518425 28.104,18.7541646 31.2,20.2079758 C33.672,21.3467945 35.664,22.5583039 37.2,23.9394245 C38.64,25.2478546 39.384,26.7985866 39.384,28.6158506 C39.384,31.8626956 37.128,34.4553256 32.592,36.2968198 C28.08,38.1625442 23.76,39.0832913 19.656,39.0832913 C16.2,39.0832913 14.4,37.8960121 14.4,35.545684 C14.4,34.6733973 14.856,34.116103 15.6,33.72842 C16.392,33.340737 17.184,33.1468955 18,33.1468955 L19.8,33.4618879 L21.528,33.7768804 C23.88,33.7768804 26.4,33.3891974 29.112,32.5896012 C31.824,31.8142352 33.504,30.8207976 34.128,29.6577486 Z" id="Shape"></path>
            </g>
        </g>
    </g>
</svg>